<svg width="247" height="393" viewBox="0 0 247 393" fill="none" xmlns="http://www.w3.org/2000/svg">
<path d="M86.8098 110.729C70.539 103.534 53.9231 64.4812 86.8098 45.2993C86.7529 25.317 103.253 -1.9736 164.057 13.6123C174.797 17.51 188.893 24.746 202.595 34.5089C214.375 42.9016 226.061 42.9016 226.061 42.9016C226.061 42.9016 225.033 46.8981 217.497 52.8358C224.234 64.8824 233.871 101.274 223.32 136.077C234.453 158.858 241.647 211.269 234.282 223.259L234.256 223.277C231.966 224.932 228.545 227.402 217.771 223.259L232.055 271.731C235.195 280.466 239.592 299.17 232.055 304.102C222.635 310.268 191.805 272.073 183.241 257.001C176.39 244.943 156.692 240.215 146.416 220.861C143.813 215.959 141.791 204.075 141.791 204.075C129.63 209.728 123.864 203.276 121.066 200.821C111.418 190.622 97.0873 160.472 116.956 121.464C109.99 117.725 105.993 108.963 105.993 103.534C87.3998 103.534 92.1271 113.08 86.8098 110.729Z" fill="#046D8A"/>
<path d="M86.8098 45.2993C53.9231 64.4812 70.539 103.534 86.8098 110.729C92.1271 113.08 87.3998 103.534 105.993 103.534M86.8098 45.2993C86.7529 25.317 103.253 -1.9736 164.057 13.6123C174.797 17.51 188.893 24.746 202.595 34.5089M86.8098 45.2993C90.8316 42.9535 102.026 51.3054 112.413 61.9136C123.26 72.9909 133.226 86.5285 133.226 92.9149M105.993 103.534C113.188 103.534 118.606 106.373 124.663 103.534C129.846 101.104 133.226 98.9812 133.226 92.9149M105.993 103.534C105.993 108.963 109.99 117.725 116.956 121.464M133.226 92.9149C133.226 92.9149 146.587 114.325 141.791 117.579C136.995 120.834 136.31 122.683 124.663 123.232C121.803 123.366 119.222 122.681 116.956 121.464M217.497 52.8358C225.033 46.8981 226.061 42.9016 226.061 42.9016C226.061 42.9016 214.375 42.9016 202.595 34.5089M217.497 52.8358C224.234 64.8824 233.871 101.274 223.32 136.077C234.453 158.858 241.647 211.269 234.282 223.259C231.991 224.913 228.585 227.418 217.771 223.259L232.055 271.731C235.195 280.466 239.592 299.17 232.055 304.102C222.635 310.268 191.805 272.073 183.241 257.001C176.39 244.943 156.692 240.215 146.416 220.861C143.813 215.959 141.791 204.075 141.791 204.075C129.63 209.728 123.864 203.276 121.066 200.821C111.418 190.622 97.0873 160.472 116.956 121.464M217.497 52.8358L202.595 34.5089" stroke="#046D8A" stroke-width="18"/>
<path d="M143.504 178.897C141.585 188.626 134.483 187.861 131.171 186.262C130.372 189.516 127.061 194.483 124.663 200.992C124.32 209.042 130.829 210.755 139.564 207.843C139.564 207.843 142.719 221.377 145.045 223.258C156.692 232.679 144.36 255.288 192.661 241.585C209.275 236.872 222.292 227.369 222.292 227.369C203.965 220.004 178.901 202.02 171.251 191.914L165.77 193.627C152.89 197.327 145.559 185.348 143.504 178.897Z" fill="#02525E" stroke="#02525E" stroke-width="2"/>
<path d="M188.379 269.675C185.124 265.736 178.273 252.89 167.14 246.039C167.14 246.039 174.468 246.964 185.638 244.155C196.809 241.345 210.474 235.591 222.121 228.226L230.342 255.973C212.255 255.973 188.379 269.675 188.379 269.675Z" fill="#02525E" stroke="#02525E" stroke-width="2"/>
<path d="M86.8098 110.729C70.539 103.534 53.9231 64.4812 86.8098 45.2993C86.7529 25.317 103.253 -1.9736 164.057 13.6123C174.797 17.51 188.893 24.746 202.595 34.5089C214.375 42.9016 226.061 42.9016 226.061 42.9016C226.061 42.9016 225.033 46.8981 217.497 52.8358C224.234 64.8824 233.871 101.274 223.32 136.077C234.453 158.858 241.647 211.269 234.282 223.259L234.256 223.277C231.966 224.932 228.545 227.402 217.771 223.259L232.055 271.731C235.195 280.466 239.592 299.17 232.055 304.102C222.635 310.268 191.805 272.073 183.241 257.001C176.39 244.943 156.692 240.215 146.416 220.861C143.813 215.959 141.791 204.075 141.791 204.075C129.63 209.728 123.864 203.276 121.066 200.821C111.418 190.622 97.0873 160.472 116.956 121.464C109.99 117.725 105.993 108.963 105.993 103.534C87.3998 103.534 92.1271 113.08 86.8098 110.729Z" fill="#046D8A"/>
<path d="M86.8098 45.2993C53.9231 64.4812 70.539 103.534 86.8098 110.729C92.1271 113.08 87.3998 103.534 105.993 103.534M86.8098 45.2993C86.7529 25.317 103.253 -1.9736 164.057 13.6123C174.797 17.51 188.893 24.746 202.595 34.5089M86.8098 45.2993C90.8316 42.9535 102.026 51.3054 112.413 61.9136C123.26 72.9909 133.226 86.5285 133.226 92.9149M105.993 103.534C113.188 103.534 118.606 106.373 124.663 103.534C129.846 101.104 133.226 98.9812 133.226 92.9149M105.993 103.534C105.993 108.963 109.99 117.725 116.956 121.464M133.226 92.9149C133.226 92.9149 146.587 114.325 141.791 117.579C136.995 120.834 136.31 122.683 124.663 123.232C121.803 123.366 119.222 122.681 116.956 121.464M217.497 52.8358C225.033 46.8981 226.061 42.9016 226.061 42.9016C226.061 42.9016 214.375 42.9016 202.595 34.5089M217.497 52.8358C224.234 64.8824 233.871 101.274 223.32 136.077C234.453 158.858 241.647 211.269 234.282 223.259C231.991 224.913 228.585 227.418 217.771 223.259L232.055 271.731C235.195 280.466 239.592 299.17 232.055 304.102C222.635 310.268 191.805 272.073 183.241 257.001C176.39 244.943 156.692 240.215 146.416 220.861C143.813 215.959 141.791 204.075 141.791 204.075C129.63 209.728 123.864 203.276 121.066 200.821C111.418 190.622 97.0873 160.472 116.956 121.464M217.497 52.8358L202.595 34.5089" stroke="#046D8A" stroke-width="18"/>
<path d="M143.504 178.897C141.585 188.626 134.483 187.861 131.171 186.262C130.372 189.516 127.061 194.483 124.663 200.992C124.32 209.042 130.829 210.755 139.564 207.843C139.564 207.843 142.719 221.377 145.045 223.258C156.692 232.679 144.36 255.288 192.661 241.585C209.275 236.872 222.292 227.369 222.292 227.369C203.965 220.004 178.901 202.02 171.251 191.914L165.77 193.627C152.89 197.327 145.559 185.348 143.504 178.897Z" fill="#02525E" stroke="#02525E" stroke-width="2"/>
<path d="M188.379 269.675C185.124 265.736 178.273 252.89 167.14 246.039C167.14 246.039 174.468 246.964 185.638 244.155C196.809 241.345 210.474 235.591 222.121 228.226L230.342 255.973C212.255 255.973 188.379 269.675 188.379 269.675Z" fill="#02525E" stroke="#02525E" stroke-width="2"/>
<path d="M234.282 223.258C241.647 211.269 234.453 158.857 223.32 136.077C207.905 114.496 182.795 107.919 170.052 125.458C157.309 142.997 163.715 168.963 168.511 179.753C170.851 186.49 181.151 203.219 203.623 216.236C209.4 219.582 214.029 221.819 217.771 223.258C228.545 227.402 231.966 224.931 234.256 223.277L234.282 223.258Z" fill="#1658A9" stroke="#1658A9" stroke-width="18"/>
<path d="M181.528 179.925C208.11 164.578 207.163 129.226 203.28 115.695C217.668 121.69 225.033 132.138 227.259 137.79C232.657 151.493 235.31 163.482 236.851 173.245C221.093 165.024 211.673 163.996 207.905 168.963C198.142 189.174 187.237 184.492 181.528 179.925Z" fill="#02525E" stroke="#02525E" stroke-width="2"/>
<path d="M206.706 199.28C200.54 204.075 186.324 203.733 181.528 202.705C186.324 208.529 200.087 217.777 209.446 222.916C220.503 228.987 229.587 228.746 232.74 227.54C238.564 225.314 239.763 219.148 240.277 206.473C240.522 200.429 240.277 190.544 237.194 188.318C237.194 188.318 222.806 183.032 218.524 186.091C214.242 189.15 212.872 194.484 206.706 199.28Z" fill="#16B3C0" stroke="#16B3C0" stroke-width="2"/>
<path d="M189.406 205.617C175.019 205.275 161.145 179.24 160.974 165.023C169.881 175.985 189.406 185.92 194.716 184.035C200.026 182.151 202.595 179.068 205.678 173.073C208.761 167.078 211.33 166.393 211.33 166.393C211.33 166.393 221.607 163.824 237.536 174.273C238.339 181.697 239.249 190.201 239.591 193.285C239.934 196.368 220.065 183.35 216.126 188.489C204.465 203.699 203.657 205.955 189.406 205.617Z" fill="#0981AE" stroke="#0981AE" stroke-width="2"/>
<path d="M234.282 211.269C210.132 205.274 193.517 179.411 190.948 167.935C198.142 179.468 216.88 203.047 234.282 205.103C234.282 205.103 240.105 205.103 240.105 208.871C240.105 213.207 234.282 211.269 234.282 211.269Z" fill="#1F2937"/>
<path d="M190.948 167.935L191.797 167.406C191.539 166.992 191.02 166.825 190.569 167.01C190.118 167.195 189.866 167.678 189.972 168.154L190.948 167.935ZM234.282 211.269L234.598 210.32C234.573 210.312 234.548 210.304 234.523 210.298L234.282 211.269ZM234.282 205.103L234.165 206.096C234.204 206.1 234.243 206.103 234.282 206.103V205.103ZM189.972 168.154C191.304 174.102 196.204 183.582 203.766 192.312C211.341 201.055 221.699 209.176 234.041 212.239L234.523 210.298C222.715 207.367 212.69 199.558 205.278 191.002C197.854 182.433 193.161 173.243 191.924 167.717L189.972 168.154ZM190.1 168.464C193.731 174.286 200.262 183.129 208.088 190.788C215.877 198.411 225.116 205.027 234.165 206.096L234.399 204.11C226.046 203.123 217.215 196.922 209.486 189.358C201.794 181.83 195.359 173.117 191.797 167.406L190.1 168.464ZM234.282 205.103C234.282 206.103 234.282 206.103 234.281 206.103C234.281 206.103 234.281 206.103 234.281 206.103C234.281 206.103 234.28 206.103 234.28 206.103C234.28 206.103 234.28 206.103 234.281 206.103C234.282 206.103 234.284 206.103 234.288 206.103C234.296 206.103 234.308 206.103 234.326 206.103C234.361 206.104 234.415 206.106 234.486 206.109C234.628 206.116 234.835 206.129 235.085 206.156C235.589 206.21 236.245 206.318 236.886 206.525C238.228 206.959 239.105 207.668 239.105 208.871H241.105C241.105 206.305 239.071 205.13 237.501 204.622C236.687 204.359 235.886 204.231 235.299 204.167C235.003 204.135 234.755 204.119 234.578 204.111C234.49 204.107 234.419 204.105 234.369 204.104C234.344 204.103 234.324 204.103 234.309 204.103C234.302 204.103 234.296 204.103 234.291 204.103C234.289 204.103 234.287 204.103 234.285 204.103C234.285 204.103 234.284 204.103 234.283 204.103C234.283 204.103 234.283 204.103 234.283 204.103C234.282 204.103 234.282 204.103 234.282 205.103ZM239.105 208.871C239.105 209.707 238.839 210.083 238.578 210.288C238.268 210.531 237.784 210.672 237.154 210.697C236.539 210.721 235.9 210.63 235.396 210.525C235.149 210.473 234.943 210.42 234.801 210.38C234.731 210.361 234.677 210.345 234.642 210.334C234.624 210.328 234.612 210.324 234.604 210.322C234.6 210.321 234.598 210.32 234.597 210.32C234.596 210.319 234.596 210.319 234.596 210.319C234.596 210.319 234.597 210.319 234.597 210.32C234.597 210.32 234.597 210.32 234.597 210.32C234.597 210.32 234.598 210.32 234.282 211.269C233.966 212.218 233.966 212.218 233.967 212.218C233.967 212.218 233.967 212.218 233.968 212.218C233.968 212.218 233.969 212.218 233.97 212.219C233.971 212.219 233.973 212.22 233.975 212.221C233.98 212.222 233.986 212.224 233.993 212.226C234.008 212.231 234.028 212.237 234.053 212.245C234.103 212.261 234.174 212.282 234.263 212.307C234.44 212.356 234.689 212.42 234.987 212.483C235.576 212.606 236.392 212.728 237.233 212.695C238.059 212.663 239.031 212.475 239.812 211.862C240.643 211.21 241.105 210.203 241.105 208.871H239.105Z" fill="#1F2937"/>
<path d="M86.8105 42.2172C97.6572 53.2945 133.227 86.5292 133.227 92.9156C139.907 88.5195 154.124 87.4348 162.687 70.3069C171.409 52.8633 167.141 36.9078 156.864 31.084C146.587 25.2601 127.917 23.2048 115.243 25.26C102.259 27.3654 88.0963 34.5096 86.8105 42.2172Z" fill="white" stroke="white" stroke-width="18"/>
<path d="M154.379 77.8388C145.542 85.4414 140.608 83.8042 139.201 83.5831C137.794 83.3619 143.473 86.679 147.926 84.9543C153.607 82.7537 154.379 77.8388 154.379 77.8388Z" fill="#046D8A"/>
<path d="M154.379 77.8388L155.367 77.994C155.432 77.5798 155.232 77.169 154.865 76.9651C154.499 76.7611 154.045 76.8073 153.727 77.0807L154.379 77.8388ZM147.926 84.9543L147.565 84.0218L147.565 84.0218L147.926 84.9543ZM139.046 84.571C139.686 84.6716 141.475 85.1821 144.204 84.6246C146.923 84.0693 150.517 82.481 155.031 78.5968L153.727 77.0807C149.405 80.7992 146.113 82.1936 143.804 82.6651C141.506 83.1344 140.123 82.7157 139.356 82.5952L139.046 84.571ZM154.379 77.8388C153.391 77.6836 153.391 77.6831 153.391 77.6826C153.391 77.6825 153.391 77.682 153.391 77.6817C153.391 77.6812 153.392 77.6807 153.392 77.6804C153.392 77.6796 153.392 77.6791 153.392 77.6789C153.392 77.6785 153.392 77.6792 153.391 77.681C153.391 77.6847 153.389 77.6929 153.387 77.7052C153.382 77.73 153.374 77.7715 153.361 77.828C153.334 77.9412 153.29 78.1139 153.219 78.3316C153.077 78.768 152.832 79.38 152.425 80.0564C151.619 81.4 150.167 83.0136 147.565 84.0218L148.287 85.8867C151.365 84.6944 153.141 82.7502 154.14 81.0862C154.637 80.2588 154.94 79.5046 155.12 78.9506C155.211 78.6732 155.271 78.4447 155.309 78.2805C155.328 78.1983 155.342 78.1321 155.351 78.0838C155.355 78.0596 155.359 78.0399 155.362 78.0248C155.363 78.0173 155.364 78.0109 155.365 78.0058C155.365 78.0032 155.366 78.0009 155.366 77.999C155.366 77.998 155.366 77.9971 155.366 77.9962C155.367 77.9958 155.367 77.9953 155.367 77.995C155.367 77.9945 155.367 77.994 154.379 77.8388ZM147.565 84.0218C145.651 84.7629 143.384 84.4377 141.676 83.8816C140.831 83.6068 140.193 83.2978 139.875 83.0989C139.797 83.0501 139.757 83.0196 139.745 83.0093C139.696 82.9682 139.818 83.0508 139.904 83.2442C139.953 83.3559 140.051 83.6468 139.91 83.989C139.763 84.343 139.474 84.4824 139.339 84.5281C139.122 84.6017 138.966 84.5584 139.046 84.571L139.356 82.5952C139.261 82.5801 138.984 82.5368 138.698 82.6338C138.528 82.6913 138.217 82.8482 138.061 83.2252C137.91 83.5904 138.011 83.9095 138.075 84.0542C138.19 84.3138 138.389 84.4818 138.459 84.5412C138.567 84.6315 138.69 84.7166 138.814 84.7942C139.304 85.1011 140.101 85.4722 141.057 85.7834C142.949 86.3993 145.748 86.8704 148.287 85.8867L147.565 84.0218Z" fill="#046D8A"/>
<path d="M133.398 67.3944C132.031 58.4879 133.569 54.9688 138.023 53.3495C142.476 51.7301 146.813 56.0427 148.299 61.9137C149.648 67.2409 148.128 75.4636 142.818 76.6435C139.307 77.4237 134.516 74.6757 133.398 67.3944Z" fill="#000916" stroke="#000916" stroke-width="12"/>
<ellipse cx="138.023" cy="68.2506" rx="2.05535" ry="3.25431" transform="rotate(-7.26253 138.023 68.2506)" fill="white"/>
<mask id="mask0_334_375" style="mask-type:alpha" maskUnits="userSpaceOnUse" x="0" y="149" width="243" height="244">
<rect x="141.681" y="149.792" width="173.81" height="173.81" transform="rotate(54.6024 141.681 149.792)" fill="#C4C4C4"/>
</mask>
<g mask="url(#mask0_334_375)">
<path d="M157.708 284.379L119.377 230.438L83.548 255.898L121.879 309.84L157.708 284.379Z" fill="url(#paint0_linear_334_375)"/>
<path d="M191.121 256.997C188.77 258.674 186.111 259.871 183.297 260.52C180.483 261.169 177.568 261.257 174.72 260.779L104.237 248.854C101.84 248.575 99.4129 248.996 97.2494 250.065C95.086 251.135 93.2782 252.807 92.0442 254.881C90.8102 256.955 90.2028 259.342 90.295 261.754C90.3873 264.165 91.1755 266.499 92.5644 268.472L69.8027 236.441C67.3364 232.894 65.97 228.7 65.874 224.381C65.778 220.063 66.9568 215.812 69.263 212.159C71.5693 208.507 74.9007 205.615 78.8411 203.845C82.7815 202.075 87.1561 201.506 91.4183 202.208L181.944 217.523C186.21 218.252 190.167 220.224 193.317 223.192C196.467 226.161 198.671 229.994 199.651 234.21C200.631 238.426 200.345 242.838 198.827 246.891C197.31 250.945 194.629 254.461 191.121 256.997Z" fill="url(#paint1_linear_334_375)"/>
<path d="M50.0807 283.052C52.4289 281.373 55.0849 280.174 57.8968 279.522C60.7087 278.87 63.6215 278.778 66.4688 279.252L136.952 291.176C139.349 291.459 141.776 291.041 143.94 289.973C146.104 288.905 147.912 287.232 149.145 285.158C150.378 283.084 150.984 280.696 150.888 278.285C150.793 275.873 150 273.541 148.607 271.571L171.343 303.567C173.853 307.109 175.259 311.315 175.381 315.655C175.504 319.995 174.338 324.273 172.032 327.952C169.725 331.63 166.381 334.542 162.421 336.322C158.461 338.101 154.062 338.668 149.781 337.95L59.1327 322.615C54.8532 321.884 50.886 319.902 47.7317 316.919C44.5774 313.936 42.3773 310.085 41.409 305.853C40.4407 301.621 40.7475 297.197 42.2908 293.139C43.8341 289.081 46.5447 285.571 50.0807 283.052V283.052Z" fill="url(#paint2_linear_334_375)"/>
<path d="M160.3 379.463C158.225 376.528 156.443 373.397 154.978 370.115C153.564 367.126 152.557 363.96 151.984 360.703C151.675 359.222 151.869 357.679 152.536 356.321C153.167 355.133 154.133 354.157 155.313 353.512C156.468 352.894 157.763 352.586 159.073 352.619C160.393 352.64 161.668 353.099 162.698 353.926C163.822 354.951 164.557 356.334 164.778 357.84C165.203 360.393 165.97 362.876 167.059 365.224C168.094 367.584 169.36 369.836 170.839 371.947C172.224 374.296 174.226 376.221 176.627 377.513C177.315 377.828 178.072 377.96 178.825 377.897C179.578 377.834 180.303 377.578 180.928 377.153C181.435 376.808 181.85 376.344 182.137 375.802C182.424 375.26 182.574 374.656 182.573 374.043C182.438 372.046 181.905 370.096 181.006 368.308L177.018 358.902C172.671 348.762 174.153 341.085 181.466 335.871C184.441 333.673 188.045 332.492 191.744 332.503C195.53 332.574 199.224 333.678 202.426 335.697C206.224 338.137 209.492 341.316 212.035 345.046C213.795 347.639 215.27 350.415 216.434 353.324C217.584 355.905 218.316 358.651 218.604 361.461C218.757 362.288 218.74 363.137 218.552 363.956C218.365 364.776 218.011 365.548 217.514 366.226C216.557 367.457 215.216 368.334 213.704 368.718C212.967 368.918 212.197 368.969 211.44 368.868C210.683 368.767 209.954 368.516 209.296 368.13C208.51 367.598 207.846 366.905 207.347 366.098C206.847 365.291 206.525 364.388 206.4 363.447C205.977 361.533 205.334 359.673 204.484 357.906C203.644 356.085 202.641 354.343 201.488 352.703C200.13 350.541 198.188 348.808 195.887 347.704C195.08 347.315 194.182 347.151 193.289 347.23C192.396 347.309 191.541 347.629 190.815 348.154C190.324 348.497 189.922 348.95 189.641 349.478C189.36 350.006 189.208 350.593 189.198 351.191C189.309 353.148 189.816 355.062 190.689 356.817L194.626 366.152C199.092 376.459 197.78 384.123 190.689 389.143C187.749 391.33 184.184 392.512 180.52 392.514C176.761 392.424 173.1 391.292 169.946 389.243C166.107 386.663 162.827 383.337 160.3 379.463Z" fill="#03A0B3"/>
<path d="M185.547 414.042C184.881 413.221 184.387 412.275 184.096 411.258C183.805 410.242 183.722 409.178 183.852 408.129C184.084 407.083 184.524 406.095 185.146 405.223C185.767 404.351 186.557 403.612 187.469 403.051L224.159 376.979C224.959 376.254 225.914 375.721 226.951 375.418C227.987 375.115 229.079 375.051 230.144 375.232C231.209 375.412 232.219 375.831 233.099 376.458C233.978 377.085 234.704 377.903 235.222 378.851L247.417 396.013C251.372 401.579 253.006 406.888 252.319 411.942C251.887 414.578 250.901 417.093 249.426 419.321C247.952 421.549 246.022 423.44 243.765 424.869C241.676 426.528 239.258 427.726 236.672 428.384C234.086 429.041 231.39 429.143 228.761 428.682C223.744 427.691 219.273 424.397 215.314 418.826L207.676 408.077L196.622 415.932C195.796 416.608 194.844 417.114 193.821 417.42C192.798 417.726 191.725 417.825 190.663 417.713C189.602 417.489 188.6 417.047 187.719 416.415C186.839 415.783 186.099 414.975 185.547 414.042ZM217.475 401.114L223.547 409.659C227.112 414.675 230.96 415.688 235.134 412.722C239.308 409.756 239.616 405.789 236.052 400.773L229.98 392.228L217.475 401.114Z" fill="#03A0B3"/>
</g>
<path d="M124.661 103.533C118.604 106.373 113.186 103.533 105.991 103.533C105.991 108.962 109.988 117.724 116.954 121.463C119.22 122.68 121.801 123.365 124.661 123.231C136.308 122.683 136.994 120.833 141.789 117.578C146.585 114.324 133.225 92.9141 133.225 92.9141C133.225 98.9803 129.844 101.103 124.661 103.533Z" fill="#1B1B1B" stroke="#1B1B1B" stroke-width="18"/>
<path d="M86.8083 45.2986C53.9217 64.4805 70.5375 103.533 86.8084 110.728C92.1256 113.079 87.3984 103.533 105.992 103.533C113.186 103.533 118.605 106.373 124.661 103.533C129.844 101.103 133.225 98.9805 133.225 92.9142C133.225 86.5278 123.259 72.9902 112.412 61.9129C102.025 51.3047 90.8301 42.9528 86.8083 45.2986Z" fill="#525867" stroke="#525867" stroke-width="18"/>
<path d="M127.402 105.932C129.933 103.823 129.971 104.733 133.739 101.307C132.369 105.418 132.026 106.446 128.258 110.727C124.172 115.371 121.114 116.142 119.694 115.866C126.546 109.7 127.402 105.932 127.402 105.932Z" fill="#1F2937"/>
<path d="M133.739 101.307L134.688 101.623C134.832 101.192 134.666 100.718 134.285 100.469C133.904 100.221 133.403 100.261 133.067 100.567L133.739 101.307ZM127.402 105.932L126.762 105.163L126.502 105.38L126.427 105.71L127.402 105.932ZM119.694 115.866L119.025 115.123C118.744 115.376 118.629 115.768 118.731 116.133C118.832 116.498 119.131 116.775 119.503 116.847L119.694 115.866ZM128.258 110.727L129.009 111.388L129.009 111.388L128.258 110.727ZM133.067 100.567C131.224 102.243 130.328 102.827 129.603 103.249C128.827 103.701 128.105 104.044 126.762 105.163L128.042 106.7C129.23 105.71 129.792 105.454 130.61 104.977C131.479 104.471 132.487 103.797 134.412 102.047L133.067 100.567ZM127.402 105.932C126.427 105.71 126.427 105.709 126.427 105.709C126.427 105.709 126.427 105.708 126.427 105.708C126.428 105.707 126.428 105.706 126.428 105.706C126.428 105.704 126.428 105.703 126.429 105.702C126.429 105.701 126.429 105.7 126.429 105.7C126.429 105.7 126.428 105.705 126.426 105.712C126.422 105.727 126.413 105.757 126.399 105.801C126.371 105.889 126.321 106.033 126.238 106.232C126.072 106.63 125.777 107.245 125.269 108.056C124.255 109.68 122.391 112.093 119.025 115.123L120.363 116.609C123.849 113.472 125.839 110.919 126.965 109.116C127.528 108.215 127.875 107.503 128.084 107.001C128.189 106.751 128.259 106.553 128.304 106.41C128.327 106.339 128.344 106.282 128.355 106.239C128.361 106.217 128.366 106.199 128.369 106.185C128.371 106.178 128.373 106.172 128.374 106.167C128.375 106.164 128.375 106.161 128.376 106.159C128.376 106.158 128.376 106.157 128.376 106.156C128.377 106.156 128.377 106.155 128.377 106.155C128.377 106.154 128.377 106.153 127.402 105.932ZM119.503 116.847C121.458 117.228 124.849 116.115 129.009 111.388L127.508 110.067C123.494 114.627 120.769 115.056 119.885 114.884L119.503 116.847ZM129.009 111.388C130.901 109.239 131.989 107.845 132.771 106.44C133.554 105.037 134.01 103.658 134.688 101.623L132.791 100.991C132.099 103.067 131.698 104.257 131.025 105.466C130.352 106.674 129.384 107.934 127.508 110.067L129.009 111.388Z" fill="#1F2937"/>
<path d="M88.0076 42.0454C81.6955 42.0454 73.7786 51.4651 70.1949 56.4321C67.9688 59.5174 62.3429 68.9363 65.0578 84.6939C66.4433 92.736 72.4222 102.507 78.9306 109.187C78.9306 109.187 90.1201 117.387 88.0076 112.784C82.6622 101.137 79.5666 93.6836 80.8149 81.2684C81.4712 74.7407 82.6467 70.6934 85.6107 65.1681C88.2722 60.2067 92.2906 56.4321 95.5449 54.7201C98.6146 53.1051 104.965 50.6094 101.197 47.8686C95.5449 43.7574 91.4342 42.0454 88.0076 42.0454Z" fill="url(#paint3_linear_334_375)"/>
<path d="M70.1949 56.4321L71.0059 57.0172L71.0059 57.0172L70.1949 56.4321ZM95.5449 54.7201L96.0105 55.6051L96.0105 55.6051L95.5449 54.7201ZM85.6107 65.1681L84.7295 64.6954L84.7295 64.6954L85.6107 65.1681ZM80.8149 81.2684L81.8098 81.3684L80.8149 81.2684ZM88.0076 112.784L88.9164 112.367L88.9164 112.367L88.0076 112.784ZM78.9306 109.187L78.2143 109.885L78.2724 109.944L78.3395 109.993L78.9306 109.187ZM101.197 47.8686L101.785 47.0599L101.785 47.0599L101.197 47.8686ZM65.0578 84.6939L66.0433 84.5242L66.0433 84.5241L65.0578 84.6939ZM71.0059 57.0172C72.776 54.5638 75.6075 51.0245 78.7573 48.1102C80.332 46.6531 81.9633 45.3739 83.5605 44.4637C85.1659 43.5488 86.6694 43.0454 88.0076 43.0454V41.0454C86.1897 41.0454 84.3366 41.7195 82.5703 42.726C80.7959 43.7372 79.0404 45.1234 77.399 46.6421C74.1163 49.6794 71.1975 53.3335 69.384 55.847L71.0059 57.0172ZM95.0793 53.8351C91.632 55.6486 87.4761 59.5753 84.7295 64.6954L86.4919 65.6408C89.0682 60.8381 92.9492 57.2156 96.0105 55.6051L95.0793 53.8351ZM84.7295 64.6954C81.6983 70.3459 80.4882 74.5215 79.8199 81.1683L81.8098 81.3684C82.4542 74.96 83.595 71.041 86.4919 65.6408L84.7295 64.6954ZM79.8199 81.1683C78.5431 93.8664 81.742 101.529 87.0987 113.201L88.9164 112.367C83.5825 100.745 80.59 93.5008 81.8098 81.3684L79.8199 81.1683ZM87.0987 113.201C87.2115 113.447 87.2553 113.598 87.2691 113.676C87.2846 113.764 87.2478 113.674 87.3225 113.518C87.4188 113.318 87.5927 113.223 87.6953 113.195C87.7622 113.177 87.7608 113.196 87.64 113.176C87.4025 113.138 87.0147 113.007 86.4839 112.761C85.9701 112.523 85.3827 112.207 84.7643 111.847C83.5285 111.128 82.2188 110.262 81.2115 109.571C80.7094 109.227 80.2856 108.928 79.9878 108.716C79.8389 108.61 79.7217 108.525 79.642 108.468C79.6021 108.439 79.5717 108.417 79.5514 108.402C79.5412 108.395 79.5336 108.389 79.5286 108.385C79.5261 108.384 79.5243 108.382 79.5231 108.381C79.5225 108.381 79.5221 108.381 79.5219 108.38C79.5218 108.38 79.5217 108.38 79.5216 108.38C79.5216 108.38 79.5217 108.38 78.9306 109.187C78.3395 109.993 78.3396 109.994 78.3397 109.994C78.3399 109.994 78.3401 109.994 78.3403 109.994C78.3407 109.994 78.3413 109.995 78.3421 109.995C78.3436 109.997 78.3458 109.998 78.3487 110C78.3545 110.004 78.3629 110.011 78.3738 110.019C78.3957 110.035 78.4279 110.058 78.4695 110.088C78.5526 110.148 78.6737 110.235 78.8267 110.344C79.1325 110.563 79.5664 110.868 80.0803 111.221C81.105 111.924 82.4608 112.82 83.7582 113.576C84.4065 113.953 85.0528 114.302 85.6439 114.576C86.2181 114.842 86.8066 115.068 87.3211 115.151C87.5762 115.192 87.8947 115.212 88.2134 115.127C88.5679 115.032 88.9256 114.8 89.1257 114.383C89.3042 114.011 89.2911 113.625 89.2385 113.328C89.1841 113.02 89.0678 112.696 88.9164 112.367L87.0987 113.201ZM88.0076 43.0454C91.1079 43.0454 95.0023 44.5993 100.609 48.6773L101.785 47.0599C96.0874 42.9155 91.7604 41.0454 88.0076 41.0454V43.0454ZM100.609 48.6773C101.398 49.2516 101.37 49.5854 101.35 49.695C101.306 49.9499 101.037 50.3698 100.321 50.9275C99.6454 51.4535 98.7482 51.9686 97.7913 52.4666C97.3172 52.7133 96.8406 52.9498 96.3794 53.1785C95.9223 53.4052 95.4757 53.6265 95.0793 53.8351L96.0105 55.6051C96.3815 55.4099 96.8049 55.1999 97.2679 54.9703C97.7268 54.7427 98.2206 54.4979 98.7147 54.2407C99.6941 53.7309 100.725 53.1479 101.55 52.5055C102.334 51.8948 103.138 51.076 103.32 50.0416C103.528 48.8619 102.88 47.856 101.785 47.0599L100.609 48.6773ZM79.6468 108.489C73.2228 101.896 67.3829 92.2996 66.0433 84.5242L64.0724 84.8637C65.5037 93.1723 71.6217 103.118 78.2143 109.885L79.6468 108.489ZM66.0433 84.5241C63.3858 69.0996 68.8913 59.9481 71.0059 57.0172L69.384 55.847C67.0464 59.0868 61.3 68.7729 64.0724 84.8637L66.0433 84.5241Z" fill="url(#paint4_linear_334_375)"/>
<path d="M146.416 230.967C147.097 240.558 154.121 244.212 157.549 244.84C161.717 245.525 169.744 244.498 168.511 234.906C166.705 220.861 176.732 224.629 181.014 220.861C183.575 218.608 176.732 212.982 172.45 211.441C168.168 209.899 158.344 211.098 153.781 214.353C149.217 217.607 145.735 221.375 146.416 230.967Z" fill="#756A69" stroke="#756A69" stroke-width="18"/>
<path d="M156.179 238.16C149.385 219.48 164.391 213.668 161.317 218.978C159.433 222.232 157.72 224.801 158.234 229.254C158.523 231.758 160.632 240.215 167.312 243.298C167.094 245.349 163.126 245.675 159.947 243.298C158.511 242.225 156.818 239.919 156.179 238.16Z" fill="#1F2937"/>
<path d="M161.317 218.978L160.452 218.477L161.317 218.978ZM156.179 238.16L157.118 237.818L156.179 238.16ZM158.234 229.254L157.241 229.369L157.241 229.369L158.234 229.254ZM167.312 243.298L168.306 243.404L168.382 242.691L167.731 242.39L167.312 243.298ZM159.947 243.298L160.545 242.497L160.545 242.497L159.947 243.298ZM162.183 219.479C162.592 218.772 162.896 217.946 162.65 217.199C162.511 216.775 162.214 216.451 161.826 216.27C161.466 216.102 161.084 216.079 160.753 216.113C160.096 216.181 159.378 216.498 158.693 216.958C157.992 217.429 157.261 218.094 156.574 218.945C153.804 222.382 151.741 228.884 155.239 238.502L157.118 237.818C153.823 228.755 155.866 223.011 158.132 220.2C158.704 219.489 159.29 218.967 159.809 218.618C160.344 218.259 160.747 218.125 160.959 218.103C161.062 218.092 161.05 218.115 160.978 218.081C160.878 218.034 160.787 217.935 160.75 217.824C160.711 217.703 160.811 217.857 160.452 218.477L162.183 219.479ZM159.228 229.14C158.757 225.063 160.275 222.774 162.183 219.479L160.452 218.477C158.591 221.69 156.683 224.539 157.241 229.369L159.228 229.14ZM167.731 242.39C164.674 240.98 162.614 238.314 161.272 235.614C159.93 232.915 159.36 230.288 159.228 229.14L157.241 229.369C157.397 230.724 158.026 233.578 159.481 236.504C160.935 239.43 163.269 242.534 166.893 244.206L167.731 242.39ZM155.239 238.502C155.601 239.497 156.239 240.598 156.958 241.578C157.675 242.556 158.524 243.484 159.348 244.099L160.545 242.497C159.933 242.04 159.218 241.277 158.57 240.395C157.924 239.514 157.396 238.582 157.118 237.818L155.239 238.502ZM159.348 244.099C161.104 245.412 163.109 246.006 164.769 245.958C165.595 245.934 166.399 245.749 167.045 245.347C167.714 244.93 168.214 244.272 168.306 243.404L166.317 243.193C166.301 243.35 166.224 243.502 165.988 243.649C165.729 243.81 165.301 243.942 164.711 243.959C163.537 243.993 161.969 243.561 160.545 242.497L159.348 244.099Z" fill="#1F2937"/>
<path d="M103.538 216.914C104.219 226.506 111.244 230.16 114.671 230.788C118.839 231.473 126.866 230.445 125.633 220.854C123.827 206.809 133.854 210.577 138.136 206.809C140.697 204.556 133.854 198.93 129.572 197.389C125.29 195.847 115.467 197.046 110.903 200.3C106.339 203.555 102.857 207.323 103.538 216.914Z" fill="#756A69" stroke="#756A69" stroke-width="18"/>
<path d="M113.301 224.107C106.508 205.427 121.514 199.615 118.44 204.925C116.556 208.18 114.843 210.748 115.357 215.201C115.646 217.705 117.754 226.163 124.434 229.246C124.217 231.297 120.248 231.622 117.069 229.246C115.633 228.172 113.941 225.866 113.301 224.107Z" fill="#1F2937"/>
<path d="M118.44 204.925L117.574 204.424L118.44 204.925ZM113.301 224.107L114.241 223.766L113.301 224.107ZM115.357 215.201L114.363 215.316L114.363 215.316L115.357 215.201ZM124.434 229.246L125.429 229.351L125.504 228.638L124.853 228.338L124.434 229.246ZM117.069 229.246L117.668 228.445L117.668 228.445L117.069 229.246ZM119.305 205.426C119.715 204.719 120.018 203.893 119.773 203.146C119.633 202.722 119.337 202.399 118.949 202.217C118.589 202.049 118.206 202.026 117.875 202.061C117.218 202.129 116.5 202.446 115.816 202.905C115.115 203.376 114.383 204.041 113.697 204.892C110.927 208.329 108.864 214.832 112.361 224.449L114.241 223.766C110.945 214.703 112.988 208.959 115.254 206.147C115.827 205.437 116.413 204.914 116.931 204.566C117.466 204.206 117.87 204.072 118.081 204.05C118.184 204.039 118.173 204.062 118.101 204.029C118.001 203.982 117.909 203.882 117.873 203.771C117.833 203.65 117.933 203.804 117.574 204.424L119.305 205.426ZM116.35 215.087C115.88 211.01 117.397 208.722 119.305 205.426L117.574 204.424C115.714 207.638 113.806 210.486 114.363 215.316L116.35 215.087ZM124.853 228.338C121.797 226.927 119.737 224.261 118.394 221.561C117.053 218.862 116.483 216.235 116.35 215.087L114.363 215.316C114.52 216.671 115.149 219.525 116.603 222.451C118.058 225.377 120.392 228.481 124.015 230.154L124.853 228.338ZM112.361 224.449C112.723 225.444 113.361 226.545 114.08 227.525C114.798 228.503 115.647 229.431 116.471 230.047L117.668 228.445C117.056 227.987 116.34 227.225 115.693 226.342C115.047 225.461 114.519 224.529 114.241 223.766L112.361 224.449ZM116.471 230.047C118.227 231.359 120.232 231.953 121.891 231.906C122.718 231.882 123.522 231.696 124.168 231.294C124.836 230.877 125.337 230.219 125.429 229.351L123.44 229.14C123.423 229.297 123.346 229.449 123.11 229.596C122.851 229.758 122.424 229.889 121.834 229.906C120.66 229.94 119.091 229.508 117.668 228.445L116.471 230.047Z" fill="#1F2937"/>
<defs>
<linearGradient id="paint0_linear_334_375" x1="102.047" y1="242.78" x2="140.377" y2="296.722" gradientUnits="userSpaceOnUse">
<stop stop-color="#1F5591"/>
<stop offset="0.11" stop-color="#196699"/>
<stop offset="0.31" stop-color="#0F7FA4"/>
<stop offset="0.53" stop-color="#0892AC"/>
<stop offset="0.75" stop-color="#049CB1"/>
<stop offset="1" stop-color="#03A0B3"/>
</linearGradient>
<linearGradient id="paint1_linear_334_375" x1="64.2576" y1="230.648" x2="198.237" y2="253.315" gradientUnits="userSpaceOnUse">
<stop offset="0.4" stop-color="#1F5591"/>
<stop offset="0.52" stop-color="#1D5A93"/>
<stop offset="0.67" stop-color="#18689A"/>
<stop offset="0.84" stop-color="#0F80A5"/>
<stop offset="1" stop-color="#03A0B3"/>
</linearGradient>
<linearGradient id="paint2_linear_334_375" x1="-662059" y1="-1.40322e+06" x2="-668699" y2="-1.40434e+06" gradientUnits="userSpaceOnUse">
<stop offset="0.4" stop-color="#1F5591"/>
<stop offset="0.52" stop-color="#1D5A93"/>
<stop offset="0.67" stop-color="#18689A"/>
<stop offset="0.84" stop-color="#0F80A5"/>
<stop offset="1" stop-color="#03A0B3"/>
</linearGradient>
<linearGradient id="paint3_linear_334_375" x1="83.3453" y1="42.0454" x2="83.3453" y2="114.186" gradientUnits="userSpaceOnUse">
<stop stop-color="white"/>
<stop offset="1" stop-color="#F5EAE7"/>
</linearGradient>
<linearGradient id="paint4_linear_334_375" x1="83.3453" y1="42.0454" x2="83.3453" y2="114.186" gradientUnits="userSpaceOnUse">
<stop stop-color="white"/>
<stop offset="1" stop-color="#F5EAE7"/>
</linearGradient>
</defs>
</svg>
