<svg width="161" height="48" viewBox="0 0 161 48" fill="none" xmlns="http://www.w3.org/2000/svg">
<path d="M30.5602 17.7466H12.4639V29.7667H30.5602V17.7466Z" fill="url(#paint0_linear_908_188)"/>
<path d="M29.7489 5.96091C29.7503 6.75069 29.5961 7.53301 29.2949 8.26313C28.9938 8.99326 28.5517 9.65687 27.994 10.216L14.1708 24.0392C13.7289 24.5294 13.4383 25.1369 13.334 25.7886C13.2297 26.4403 13.3162 27.1082 13.583 27.7118C13.8499 28.3154 14.2857 28.8289 14.8379 29.1904C15.3901 29.5518 16.0351 29.7457 16.6951 29.7487H5.94907C4.76785 29.7368 3.61636 29.3769 2.63847 28.7142C1.66059 28.0516 0.89967 27.1154 0.450802 26.0227C0.00193446 24.93 -0.11498 23.7293 0.114669 22.5706C0.344318 21.4118 0.910346 20.3465 1.74203 19.5076L19.4957 1.75387C20.334 0.918125 21.4004 0.348535 22.5612 0.11655C23.722 -0.115434 24.9254 0.000517997 26.0205 0.449861C27.1156 0.899204 28.0536 1.66193 28.7169 2.64235C29.3802 3.62277 29.7392 4.77724 29.7489 5.96091Z" fill="url(#paint1_linear_908_188)"/>
<path d="M13.2154 41.5284C13.2132 40.739 13.3665 39.957 13.6666 39.2269C13.9666 38.4968 14.4076 37.8329 14.9643 37.2733L28.7874 23.4501C29.2301 22.9607 29.5214 22.3534 29.6261 21.7018C29.7308 21.0502 29.6444 20.3822 29.3773 19.7787C29.1102 19.1752 28.6739 18.6621 28.1212 18.3014C27.5685 17.9408 26.9232 17.748 26.2632 17.7466H36.9972C38.1844 17.748 39.3447 18.1011 40.3315 18.7612C41.3183 19.4213 42.0875 20.3589 42.5421 21.4557C42.9966 22.5525 43.1161 23.7594 42.8855 24.924C42.6549 26.0887 42.0845 27.1589 41.2463 27.9997L23.4685 45.7775C22.6277 46.6157 21.5574 47.1861 20.3928 47.4167C19.2281 47.6473 18.0213 47.5278 16.9245 47.0733C15.8277 46.6188 14.8901 45.8495 14.23 44.8627C13.5698 43.8759 13.2168 42.7157 13.2154 41.5284V41.5284Z" fill="url(#paint2_linear_908_188)"/>
<path d="M150.708 36.072C149.257 36.0684 147.811 35.9228 146.388 35.6373C145.071 35.4051 143.791 34.9963 142.583 34.4221C142.023 34.1812 141.562 33.7553 141.279 33.2157C141.029 32.7327 140.933 32.1847 141.004 31.6456C141.07 31.121 141.272 30.6227 141.589 30.1996C141.903 29.7722 142.349 29.4603 142.858 29.3126C143.458 29.1824 144.085 29.2639 144.632 29.5432C145.571 30.0011 146.567 30.3294 147.595 30.519C148.613 30.7309 149.65 30.8409 150.69 30.8472C151.787 30.9395 152.888 30.731 153.875 30.244C154.139 30.0915 154.36 29.8734 154.515 29.6108C154.671 29.3482 154.756 29.0499 154.762 28.7448C154.769 28.498 154.715 28.2532 154.605 28.0321C154.496 27.8109 154.333 27.6201 154.132 27.4763C153.443 27.0556 152.677 26.7752 151.879 26.6514L147.852 25.7643C143.487 24.824 141.308 22.5413 141.314 18.9162C141.284 17.4243 141.735 15.9625 142.6 14.747C143.522 13.5092 144.769 12.5512 146.202 11.9793C147.906 11.2935 149.732 10.9615 151.569 11.0035C152.788 11.008 154.004 11.1388 155.197 11.3939C156.314 11.6206 157.389 12.0217 158.381 12.5825C158.704 12.7334 158.99 12.9516 159.221 13.2224C159.452 13.4933 159.623 13.8104 159.721 14.1526C159.907 14.7549 159.882 15.4027 159.65 15.9889C159.547 16.2786 159.386 16.5443 159.177 16.77C158.968 16.9957 158.715 17.1766 158.435 17.3017C158.076 17.4358 157.693 17.4925 157.311 17.4681C156.928 17.4436 156.556 17.3385 156.217 17.1598C155.488 16.8513 154.726 16.628 153.946 16.4945C153.15 16.3455 152.343 16.2683 151.533 16.2638C150.502 16.2049 149.475 16.4386 148.57 16.938C148.256 17.1144 147.994 17.3722 147.813 17.6843C147.632 17.9964 147.538 18.3514 147.541 18.7121C147.538 18.9537 147.592 19.1927 147.7 19.4088C147.808 19.6249 147.967 19.8119 148.162 19.954C148.832 20.3764 149.58 20.6572 150.362 20.779L154.354 21.6661C158.754 22.5709 160.969 24.7678 160.998 28.257C161.032 29.7369 160.583 31.1876 159.721 32.3907C158.815 33.6096 157.586 34.55 156.173 35.1051C154.434 35.7893 152.576 36.1181 150.708 36.072V36.072Z" fill="#03A0B3"/>
<path d="M119.058 36.0014C118.333 36.0275 117.622 35.8018 117.044 35.3627C116.79 35.1647 116.579 34.9156 116.426 34.6315C116.274 34.3474 116.182 34.0344 116.157 33.7128C116.114 32.966 116.362 32.2315 116.849 31.6637L123.059 23.4406L117.035 15.457C116.551 14.8815 116.309 14.1404 116.361 13.3901C116.432 12.746 116.75 12.1545 117.248 11.7402C117.815 11.292 118.522 11.0594 119.244 11.0838C119.871 11.0661 120.489 11.236 121.018 11.5717C121.618 11.9846 122.133 12.5086 122.535 13.1151L126.625 18.8278L130.794 13.1506C131.189 12.5333 131.705 12.0022 132.311 11.5894C132.845 11.2667 133.461 11.1036 134.085 11.1192C134.813 11.0881 135.529 11.3142 136.107 11.7579C136.362 11.9556 136.573 12.2046 136.726 12.4888C136.879 12.773 136.97 13.0861 136.994 13.4079C137.041 14.1644 136.796 14.9102 136.311 15.4925L130.288 23.4761L136.498 31.6992C136.748 31.9751 136.94 32.2989 137.062 32.6511C137.184 33.0033 137.233 33.3765 137.207 33.7483C137.177 34.0685 137.083 34.3795 136.93 34.6629C136.778 34.9462 136.571 35.1962 136.32 35.3982C135.738 35.8412 135.02 36.0671 134.289 36.0369C133.665 36.0593 133.048 35.899 132.515 35.5756C131.909 35.1532 131.388 34.6206 130.98 34.0055L126.678 28.0888L122.411 34.0055C122.005 34.6252 121.48 35.1587 120.867 35.5756C120.318 35.889 119.689 36.0369 119.058 36.0014V36.0014Z" fill="#03A0B3"/>
<path d="M109.132 36.0004C108.706 36.0277 108.279 35.9687 107.876 35.827C107.474 35.6852 107.104 35.4636 106.79 35.1754C106.498 34.8517 106.275 34.4732 106.131 34.0619C105.988 33.6506 105.929 33.2149 105.956 32.7803V14.356C105.926 13.9192 105.984 13.4807 106.125 13.0664C106.267 12.6521 106.49 12.2702 106.781 11.9432C107.445 11.4089 108.271 11.1177 109.123 11.1177C109.975 11.1177 110.801 11.4089 111.465 11.9432C111.756 12.2702 111.979 12.6521 112.12 13.0664C112.262 13.4807 112.319 13.9192 112.29 14.356V32.7803C112.349 33.6595 112.059 34.5266 111.482 35.1931C111.165 35.4793 110.793 35.6983 110.389 35.837C109.986 35.9757 109.558 36.0313 109.132 36.0004Z" fill="#03A0B3"/>
<path d="M85.0038 35.8501C84.578 35.8774 84.151 35.8184 83.7486 35.6767C83.3462 35.5349 82.9766 35.3133 82.6619 35.0251C82.3723 34.7042 82.15 34.3285 82.0083 33.9201C81.8666 33.5117 81.8083 33.0791 81.8369 32.6477V14.4807C81.7856 14.0478 81.8331 13.6089 81.9759 13.197C82.1187 12.7851 82.353 12.411 82.6613 12.1027C82.9695 11.7945 83.3437 11.5601 83.7556 11.4173C84.1674 11.2746 84.6063 11.227 85.0392 11.2783H93.5373C96.2931 11.2783 98.4221 11.9821 99.9242 13.3896C100.691 14.1483 101.288 15.0607 101.676 16.0667C102.064 17.0727 102.235 18.1496 102.177 19.2265C102.235 20.302 102.064 21.3774 101.676 22.382C101.287 23.3866 100.69 24.2974 99.9242 25.0545C98.4251 26.4738 96.2961 27.1746 93.5373 27.1746H88.2149V32.6477C88.2444 33.0777 88.1883 33.5093 88.0497 33.9174C87.9111 34.3255 87.6929 34.702 87.4077 35.0251C87.086 35.3216 86.7062 35.5481 86.2924 35.6901C85.8786 35.8321 85.4398 35.8866 85.0038 35.8501ZM88.2149 22.3223H92.4462C94.93 22.3223 96.1631 21.2933 96.1631 19.2265C96.1631 17.1596 94.93 16.1306 92.4462 16.1306H88.2149V22.3223Z" fill="#03A0B3"/>
<path d="M67.7237 36.072C66.273 36.0684 64.8261 35.9228 63.4037 35.6373C62.0895 35.4039 60.8126 34.9951 59.6071 34.422C59.0472 34.1775 58.5852 33.7528 58.2942 33.2156C58.0511 32.7304 57.9555 32.1845 58.0192 31.6455C58.0858 31.121 58.2876 30.6227 58.6047 30.1996C58.92 29.7701 59.3695 29.4579 59.8821 29.3125C60.4823 29.1824 61.1092 29.2639 61.6562 29.5432C62.5955 30.0001 63.592 30.3283 64.619 30.519C65.6376 30.7305 66.6746 30.8404 67.7149 30.8472C68.8116 30.9409 69.913 30.7322 70.8994 30.244C71.1637 30.0915 71.3842 29.8734 71.5396 29.6108C71.695 29.3481 71.78 29.0499 71.7865 28.7448C71.7916 28.4973 71.7361 28.2523 71.6248 28.0312C71.5134 27.8101 71.3497 27.6196 71.1478 27.4763C70.4592 27.0541 69.6931 26.7736 68.8947 26.6513L64.8674 25.7643C60.5148 24.824 58.3356 22.5413 58.3297 18.9161C58.3021 17.4233 58.7562 15.9613 59.6248 14.7469C60.5329 13.5179 61.76 12.5608 63.1731 11.9793C64.8637 11.3001 66.6738 10.9682 68.4955 11.0035C69.7601 11.0308 71.0182 11.1943 72.2478 11.4914C73.3655 11.7165 74.4404 12.1178 75.4323 12.6801C75.7401 12.8228 76.0154 13.0271 76.2412 13.2804C76.467 13.5337 76.6385 13.8305 76.7452 14.1526C76.9265 14.7555 76.9015 15.4017 76.6742 15.9888C76.5678 16.2781 76.4048 16.5433 76.1946 16.7687C75.9843 16.9942 75.7312 17.1754 75.4501 17.3017C75.0913 17.4358 74.7083 17.4925 74.326 17.4681C73.9438 17.4436 73.5711 17.3385 73.2324 17.1598C72.5036 16.8512 71.7416 16.628 70.9615 16.4945C70.1658 16.3451 69.3583 16.2679 68.5487 16.2638C67.5202 16.2051 66.496 16.4389 65.5948 16.938C65.2778 17.1125 65.0139 17.3696 64.8312 17.6819C64.6484 17.9943 64.5537 18.3503 64.5569 18.7121C64.5548 18.9535 64.61 19.1919 64.7179 19.4078C64.8259 19.6237 64.9835 19.8109 65.1778 19.954C65.8479 20.3748 66.5963 20.6555 67.3778 20.779L71.3696 21.666C75.8049 22.6063 78.0196 24.8299 78.0137 28.3368C78.0458 29.8152 77.601 31.2646 76.7452 32.4705C75.8366 33.6864 74.6082 34.6261 73.1969 35.1849C71.4505 35.8447 69.5892 36.1464 67.7237 36.072Z" fill="#03A0B3"/>
<defs>
<linearGradient id="paint0_linear_908_188" x1="12.4699" y1="23.565" x2="30.5662" y2="23.565" gradientUnits="userSpaceOnUse">
<stop stop-color="#1F5591"/>
<stop offset="0.11" stop-color="#196699"/>
<stop offset="0.31" stop-color="#0F7FA4"/>
<stop offset="0.53" stop-color="#0892AC"/>
<stop offset="0.75" stop-color="#049CB1"/>
<stop offset="1" stop-color="#03A0B3"/>
</linearGradient>
<linearGradient id="paint1_linear_908_188" x1="3.77944" y1="30.0673" x2="30.0554" y2="3.79129" gradientUnits="userSpaceOnUse">
<stop offset="0.4" stop-color="#1F5591"/>
<stop offset="0.52" stop-color="#1D5A93"/>
<stop offset="0.67" stop-color="#18689A"/>
<stop offset="0.84" stop-color="#0F80A5"/>
<stop offset="1" stop-color="#03A0B3"/>
</linearGradient>
<linearGradient id="paint2_linear_908_188" x1="-417735" y1="-74685.5" x2="-419037" y2="-73383" gradientUnits="userSpaceOnUse">
<stop offset="0.4" stop-color="#1F5591"/>
<stop offset="0.52" stop-color="#1D5A93"/>
<stop offset="0.67" stop-color="#18689A"/>
<stop offset="0.84" stop-color="#0F80A5"/>
<stop offset="1" stop-color="#03A0B3"/>
</linearGradient>
</defs>
</svg>
